HIERARCHY
ROOT Hips
{
  OFFSET 4.79619 100.597 119.853
  CHANNELS 6 Xposition Yposition Zposition Zrotation Xrotation Yrotation
  JOINT RightUpLeg
  {
    OFFSET -8.9458 -8.66707 0.101652
    CHANNELS 3 Zrotation Xrotation Yrotation
    JOINT RightLeg
    {
      OFFSET 0 -44.4227 1.3727
      CHANNELS 3 Zrotation Xrotation Yrotation
      JOINT RightFoot
      {
        OFFSET 0.253549 -42.0924 -1.46059
        CHANNELS 3 Zrotation Xrotation Yrotation
        JOINT RightToes
        {
          OFFSET 0.04 -4.41509 8.4991
          CHANNELS 3 Zrotation Xrotation Yrotation
          End Site
          {
            OFFSET -0.08 -0.137448 9.77979
          }
        }
      }
    }
  }
  JOINT Spine
  {
    OFFSET 0 11.8905 0
    CHANNELS 3 Zrotation Xrotation Yrotation
    JOINT Spine1
    {
      OFFSET 0 25.6574 0.127663
      CHANNELS 3 Zrotation Xrotation Yrotation
      JOINT HEad
      {
        OFFSET 0 8.73416 0.011341
        CHANNELS 3 Zrotation Xrotation Yrotation
        End Site
        {
          OFFSET -0.29 12.7742 2.51395
        }
      }
      JOINT LeftShoulder1
      {
        OFFSET 8.99 -0.362252 -0.22
        CHANNELS 3 Zrotation Xrotation Yrotation
        JOINT LeftArm
        {
          OFFSET 10.2827 -0.00338 0.322123
          CHANNELS 3 Zrotation Xrotation Yrotation
          JOINT LeftForeArm
          {
            OFFSET 32.7669 0.099144 -1.42434
            CHANNELS 3 Zrotation Xrotation Yrotation
            JOINT LeftHand
            {
              OFFSET 27.5643 0.085362 1.02216
              CHANNELS 3 Zrotation Xrotation Yrotation
              End Site
              {
                OFFSET 16.7443 -0.6 1.50291
              }
            }
          }
        }
      }
      JOINT RightShoulder
      {
        OFFSET -8.99 -0.362252 -0.22
        CHANNELS 3 Zrotation Xrotation Yrotation
        JOINT RightArm
        {
          OFFSET -10.2827 -0.00338 0.322123
          CHANNELS 3 Zrotation Xrotation Yrotation
          JOINT RightForeArm
          {
            OFFSET -32.8971 0.099144 -1.42434
            CHANNELS 3 Zrotation Xrotation Yrotation
            JOINT RightHand
            {
              OFFSET -27.4921 0.085362 1.02216
              CHANNELS 3 Zrotation Xrotation Yrotation
              End Site
              {
                OFFSET -16.6312 -0.6 1.50291
              }
            }
          }
        }
      }
    }
  }
  JOINT LeftUpLeg
  {
    OFFSET 8.9458 -8.66707 0.101652
    CHANNELS 3 Zrotation Xrotation Yrotation
    JOINT LeftLeg
    {
      OFFSET 0 -44.4227 1.3727
      CHANNELS 3 Zrotation Xrotation Yrotation
      JOINT LeftFoot
      {
        OFFSET -0.253549 -42.0924 -1.46059
        CHANNELS 3 Zrotation Xrotation Yrotation
        JOINT LeftToes
        {
          OFFSET -0.04 -4.41509 8.4991
          CHANNELS 3 Zrotation Xrotation Yrotation
          End Site
          {
            OFFSET 0.08 -0.047448 9.77979
          }
        }
      }
    }
  }
}
MOTION
Frames:	19
Frame Time:	0.0166667
4.79619 100.597 119.853 -7.75141 0.0162317 171.351 -6.3206 6.66894 -0.395607 0.500471 31.5096 -1.44473 -10.6699 13.4348 1.45309 0.0462048 0.000533964 0.662642 -2.45945 -0.952109 -0.129042 -4.34509 -2.40706 0.304241 -1.91102 1.28922 4.05153 9.93923e-017 0 -0 -51.0118 -52.7478 39.4838 -25.2014 14.2432 -11.2672 0.368473 9.90896 -0.00117927 -11.9273 -0.347596 13.9121 104.509 -18.999 16.899 17.7278 19.4527 43.6715 -0.369625 9.91382 0.00119887 -9.37875 -20.2933 -0.837047 -2.40387 12.7101 20.3945 -1.64 6.42879 0.266911 1.51809e-011 -2.24908e-011 1.67838e-011 
4.80915 100.435 117.878 -8.94807 -0.0879402 171.386 -7.82952 3.41043 -2.00912 -0.302221 37.9715 0.233569 -9.61696 17.8057 1.64724 2.47491 3.08379 0.223359 -3.28075 -0.870758 -0.324241 -5.83135 -2.55531 0.261741 -1.59799 1.07309 4.27171 2.20695e-032 7.95139e-016 -1.59028e-015 -53.3245 -52.1329 36.6772 -25.4818 14.4997 -12.3234 0.368473 9.90896 -0.00117927 -11.6008 -0.298208 14.0944 105.263 -20.5505 15.6055 17.5256 18.7405 40.2434 -0.369625 9.91382 0.00119887 -10.6004 -20.4207 -1.05769 -3.0219 15.0201 20.2693 -1.89928 3.7833 0.254164 -0.0954971 1.00195 -0.00722062 
4.80856 100.299 115.927 -10.0052 -0.186844 171.438 -9.27754 0.140332 -3.35155 -1.4879 44.1299 1.67011 -8.93948 21.4239 1.85736 5.06417 5.74248 -0.118986 -4.06473 -0.843748 -0.499941 -7.14616 -2.56002 0.226883 -1.37099 0.75936 4.43402 -3.97569e-016 3.97569e-016 -1.59028e-015 -55.8775 -51.3614 33.5939 -25.7188 14.7676 -13.4374 0.368473 9.90896 -0.00117927 -11.1631 -0.231909 14.0155 105.798 -21.9707 14.5109 17.2329 17.9172 36.4853 -0.369625 9.91382 0.00119887 -11.7514 -20.3734 -1.39193 -3.5428 17.0059 20.2901 -2.1255 1.37364 0.241857 -0.138266 1.78213 -0.0165833 
4.76815 100.226 114.029 -10.7375 -0.254354 171.608 -10.2169 -3.14195 -4.14255 -2.57556 49.6564 1.67267 -9.25226 23.1698 2.09368 8.33489 7.23202 -0.157094 -4.78731 -0.995316 -0.643198 -8.10183 -2.10286 0.210507 -1.33712 0.123466 4.39715 7.45443e-017 0 3.18055e-015 -59.1306 -50.2 29.7241 -25.8622 15.1079 -14.8311 0.368473 9.90896 -0.00117927 -10.2951 -0.0995291 13.0823 105.792 -22.8926 14.0126 16.9742 17.0421 31.6727 -0.369625 9.91382 0.00119887 -12.8053 -19.7974 -2.17176 -3.81863 18.0351 20.7103 -2.24662 -0.352121 0.230501 0.0839246 1.97895 -0.0457178 
4.71264 100.214 112.191 -11.1433 -0.347749 171.654 -10.7143 -6.4936 -4.20399 -3.08261 54.4948 0.721356 -10.0285 23.3963 2.27722 11.0715 8.08762 -0.115109 -5.37627 -1.17014 -0.714924 -8.57383 -1.56464 0.210758 -1.53152 -0.552235 4.35476 1.59649e-015 2.48481e-016 -0 -62.7151 -48.8344 25.4573 -25.9175 15.4011 -16.064 0.368473 9.90896 -0.00117927 -9.49691 0.0219824 12.03 105.757 -23.8525 13.8013 16.3913 16.0511 26.5502 -0.369625 9.91382 0.00119887 -13.5132 -19.0523 -2.8404 -3.99151 18.6594 21.1724 -2.34089 -1.79479 0.216849 0.143725 1.79013 -0.0502647 
4.65619 100.299 110.458 -11.1144 -0.537738 171.14 -10.5494 -10.1196 -2.79017 -2.52608 58.5001 -1.16561 -11.0375 21.7066 2.32833 11.7141 8.64782 -0.239493 -5.70187 -1.23127 -0.642813 -8.21827 -1.29775 0.235015 -2.14598 -1.02358 4.61718 -8.07563e-017 4.96962e-017 -0 -66.5373 -47.5561 20.995 -25.901 15.5554 -16.7224 0.368473 9.90896 -0.00117927 -9.48692 0.0296665 11.6351 106.411 -25.2947 13.8397 15.0957 15.0213 21.5068 -0.369625 9.91382 0.00119887 -13.5513 -18.4226 -2.86442 -4.12712 19.1815 21.504 -2.53506 -3.19898 0.197205 -0.388877 1.17487 0.0202717 
4.60428 100.409 108.752 -10.7947 -0.756522 170.747 -9.80288 -13.5971 -1.21672 -1.4918 61.5011 -3.21594 -12.0331 19.2321 2.28848 11.9199 8.75778 -0.263383 -5.90698 -1.24785 -0.513434 -7.50716 -1.06914 0.266251 -2.7947 -1.39878 4.69042 2.60905e-016 -1.98785e-016 -0 -70.5719 -45.9253 16.0825 -25.8006 15.5996 -16.9288 0.368473 9.90896 -0.00117927 -9.32258 0.0432279 11.1799 106.691 -27.1397 13.7033 13.629 14.0703 16.8258 -0.369625 9.91382 0.00119887 -13.249 -17.7977 -2.54928 -4.24281 19.7497 21.4442 -2.61373 -4.5853 0.174152 -1.28828 0.487182 0.129714 
4.56603 100.477 106.983 -10.2436 -0.999159 171.109 -8.85674 -16.5434 -0.776731 -1.27353 63.2982 -3.68827 -12.5755 17.1657 2.16647 12.9533 8.24696 0.0592308 -6.0935 -1.22675 -0.37537 -6.76115 -0.839006 0.292061 -3.17654 -1.64005 4.08555 -9.69075e-016 -1.98785e-016 1.59028e-015 -74.5357 -43.4658 10.6136 -25.6295 15.4835 -16.5063 0.368473 9.90896 -0.00117927 -8.1257 0.185326 10.1552 105.531 -29.6812 12.8613 12.4226 13.4194 12.8545 -0.369625 9.91382 0.00119887 -12.7609 -17.219 -1.84981 -4.3944 20.7463 20.4012 -2.33223 -6.14984 0.144715 -2.69555 0.124692 0.278557 
4.54457 100.531 105.224 -9.57 -1.15351 171.937 -7.88982 -19.0348 -0.991158 -1.62045 64.0561 -3.40465 -13.059 14.9247 1.98294 14.444 7.50044 0.542867 -6.25679 -1.21786 -0.270333 -6.0896 -0.379994 0.306039 -3.27162 -1.94398 3.09723 -0 0 1.59028e-015 -78.2114 -40.4042 5.01589 -25.2929 15.3274 -15.9477 0.368473 9.90896 -0.00117927 -6.39588 0.349186 8.71254 103.333 -32.276 11.4596 11.7313 13.0051 9.71176 -0.369625 9.91382 0.00119887 -12.2601 -16.5062 -1.27448 -4.45351 21.7806 19.1847 -1.90511 -7.61082 0.121963 -3.95045 -0.0841625 0.407518 
4.55478 100.567 103.529 -8.92646 -1.04042 173.209 -7.11792 -20.9569 -1.97854 -2.60968 63.8557 -2.60821 -13.7878 12.1272 1.74745 16.6627 6.81878 1.13748 -6.46421 -1.28829 -0.268796 -5.76294 0.707788 0.293655 -2.90457 -2.60967 1.81728 4.72114e-016 -3.97569e-016 -0 -81.6519 -36.927 -0.716882 -24.6479 15.2434 -15.6908 0.368473 9.90896 -0.00117927 -4.32165 0.479456 6.80643 100.145 -34.2847 9.42974 12.0052 12.822 7.75114 -0.369625 9.91382 0.00119887 -11.998 -15.4429 -1.49084 -4.37482 22.5798 18.6468 -1.47581 -8.72113 0.122206 -4.16204 -0.0576827 0.431549 
4.57055 100.612 101.856 -8.29047 -0.847692 174.765 -6.57959 -22.4778 -3.2317 -3.23929 62.6607 -2.44001 -14.5906 9.36347 1.50194 18.923 6.28607 1.68741 -6.60061 -1.39327 -0.33303 -5.61653 1.94658 0.267123 -2.28295 -3.29119 0.36431 4.47266e-016 7.95139e-016 7.95139e-016 -84.4014 -33.0137 -5.96841 -23.8724 15.2196 -15.7183 0.368473 9.90896 -0.00117927 -1.97796 0.539367 4.51894 96.1399 -35.8863 6.85926 12.9301 12.809 6.66544 -0.369625 9.91382 0.00119887 -11.7865 -14.1987 -1.94717 -4.19801 23.157 18.1315 -1.00674 -9.57284 0.133352 -4.16596 -0.158053 0.428382 
4.56393 100.699 100.192 -7.6723 -0.686699 176.474 -6.3176 -23.7387 -4.28609 -2.79479 60.4354 -4.01237 -15.4265 7.12501 1.28318 20.5447 6.253 1.93965 -6.53216 -1.51761 -0.46012 -5.58566 3.05823 0.230886 -1.50209 -3.75504 -1.11263 8.69683e-016 -7.95139e-016 7.95139e-016 -86.3446 -28.7647 -10.3414 -23.0703 15.2754 -16.1498 0.368473 9.90896 -0.00117927 0.445929 0.464292 1.80834 91.6349 -36.9948 3.86667 14.3311 12.8553 6.31346 -0.369625 9.91382 0.00119887 -11.5389 -12.8335 -2.18509 -3.89688 23.3853 17.0597 -0.445687 -10.094 0.151615 -4.60767 -0.982072 0.452693 
4.55532 100.802 98.4985 -7.08111 -0.615321 178.226 -6.21582 -24.7498 -5.02427 -1.71472 57.2209 -6.59549 -16.1411 5.32843 1.09054 21.7276 6.22199 2.14138 -6.38321 -1.63966 -0.61612 -5.6436 3.84375 0.193122 -0.599217 -3.9595 -2.60906 -2.98177e-016 0 -3.97569e-016 -87.4974 -24.4412 -13.866 -22.3108 15.4208 -17.014 0.368473 9.90896 -0.00117927 3.05039 0.278957 -0.998954 86.4771 -37.7372 0.449981 16.0729 12.9915 6.58784 -0.369625 9.91382 0.00119887 -11.2968 -11.458 -2.61954 -3.56722 23.3957 16.0294 0.0161148 -10.5296 0.168006 -5.1622 -1.74417 0.488819 
4.55253 100.92 96.726 -6.51058 -0.762779 179.878 -6.17726 -25.6006 -5.06573 -0.0313703 52.9927 -10.1881 -16.5089 4.13804 0.942387 22.4018 5.62052 2.53608 -6.21603 -1.71362 -0.767797 -5.76298 3.90268 0.165324 0.393184 -3.69371 -4.09802 6.70898e-016 7.95139e-016 -1.98785e-016 -87.874 -20.2122 -16.3326 -21.6994 15.6715 -18.4342 0.368473 9.90896 -0.00117927 6.00874 -0.027484 -3.6126 80.401 -38.2508 -3.3912 17.9753 13.1868 7.33712 -0.369625 9.91382 0.00119887 -11.0629 -10.2053 -3.66822 -3.29686 23.2504 15.5488 0.123181 -11.1538 0.167764 -5.82535 -1.61498 0.554047 
4.56547 101.012 94.8958 -5.96223 -1.02838 -178.6 -6.14479 -26.2131 -4.71206 1.30139 47.8542 -13.5196 -16.697 3.30224 0.822819 22.7446 5.0237 2.87738 -6.08079 -1.79682 -0.910032 -5.88671 3.56115 0.142237 1.42754 -3.23995 -5.4924 2.98177e-016 0 9.93923e-017 -87.8187 -16.2644 -18.1425 -21.1951 15.9987 -20.2558 0.368473 9.90896 -0.00117927 8.92256 -0.403002 -5.9668 74.0302 -38.4185 -7.52904 19.9636 13.4816 8.55982 -0.369625 9.91382 0.00119887 -10.778 -9.06329 -4.84569 -3.0621 23.0767 15.3109 0.119509 -11.8068 0.164344 -6.28618 -1.32273 0.603374 
4.60992 101.029 93.0039 -5.44504 -1.36969 -177.299 -6.0662 -26.5481 -4.09183 2.22513 42.0082 -16.1297 -16.8371 2.5708 0.717969 22.9017 4.93388 2.946 -6.05866 -1.94085 -1.02125 -5.93747 2.96736 0.122704 2.43663 -2.80724 -6.6613 8.69683e-016 -3.97569e-016 -7.95139e-016 -87.5386 -12.8088 -19.4509 -20.7906 16.3764 -22.3888 0.368473 9.90896 -0.00117927 11.4881 -0.81061 -7.85007 67.8126 -38.1065 -11.9337 21.9691 13.9283 10.3143 -0.369625 9.91382 0.00119887 -10.437 -8.08725 -5.84407 -2.85347 23.023 15.2357 0.181583 -12.3988 0.167548 -6.11446 -1.29315 0.586693 
4.67612 100.989 91.0765 -4.97271 -1.73912 -176.184 -5.94204 -26.5537 -3.38947 2.48755 35.538 -17.8037 -16.8275 2.1034 0.645118 22.8431 4.99569 2.9074 -6.12025 -2.11713 -1.11763 -5.94578 2.25473 0.105907 3.33598 -2.40242 -7.71651 2.11209e-016 1.98785e-016 -7.95139e-016 -87.1524 -9.74549 -20.4359 -20.485 16.804 -24.7648 0.368473 9.90896 -0.00117927 13.6575 -1.21959 -9.40966 62.1521 -37.5794 -16.2088 23.7547 14.4387 12.2795 -0.369625 9.91382 0.00119887 -10.0281 -7.2174 -6.57402 -2.69804 23.0775 15.1396 0.25801 -12.9945 0.173832 -5.65718 -1.60435 0.536858 
4.74397 100.895 89.1494 -4.54818 -2.11597 -175.231 -5.74917 -26.169 -2.86318 2.1301 28.3273 -18.239 -16.5442 2.02498 0.621942 22.6152 5.01037 2.86226 -6.27905 -2.3127 -1.20152 -5.8633 1.57263 0.0924134 3.933 -2.11065 -8.81137 9.69075e-016 9.93923e-017 -0 -86.7778 -7.00164 -21.2764 -20.2755 17.2808 -27.3214 0.368473 9.90896 -0.00117927 15.227 -1.60173 -10.7647 57.5014 -37.074 -20.0465 25.0778 14.9862 14.1964 -0.369625 9.91382 0.00119887 -9.51739 -6.49119 -6.74328 -2.61086 23.3215 14.6838 0.385899 -13.5982 0.185366 -5.45214 -2.72919 0.484336 
4.8604 100.755 87.1898 -4.23893 -2.379 -174.493 -5.54693 -25.3957 -2.44104 1.4955 20.9525 -17.9352 -16.1872 2.18944 0.633908 22.1514 5.0106 2.78455 -6.48741 -2.53241 -1.29279 -5.84821 1.02142 0.0767686 4.46767 -1.90115 -9.68985 -1.18028e-015 0 -7.95139e-016 -86.319 -4.72451 -21.993 -20.164 17.7856 -29.9507 0.368473 9.90896 -0.00117927 16.3749 -1.91801 -11.7868 53.7408 -36.7316 -23.4354 25.9589 15.4821 15.92 -0.369625 9.91382 0.00119887 -8.99414 -5.66837 -6.65409 -2.61441 23.6196 14.253 0.47623 -14.301 0.194842 -4.50429 -3.90917 0.386353 
